<svg version="1.1" xmlns="http://www.w3.org/2000/svg" style="display: block;" viewBox="0 0 2048 1526" width="1024" height="763" preserveAspectRatio="none">
<path transform="translate(0,0)" fill="rgb(255,255,255)" d="M 0 0 L 2048 0 L 2048 1526 L 0 1526 L 0 0 z"/>
<path transform="translate(0,0)" fill="rgb(40,33,32)" d="M 932.826 417.117 C 958.112 415.719 986.398 416.776 1011.85 417.166 C 1021.44 417.313 1029.5 424.783 1028.54 434.982 C 1026.29 459.057 1021.12 482.983 1017.48 506.977 L 988.585 690.929 L 1047.12 690.926 L 1102.41 605.206 C 1111.43 591.24 1119.99 576.217 1130.11 563.076 C 1132.26 560.286 1134.95 556.781 1138.33 555.516 C 1148.5 551.717 1232.19 551.01 1241.07 555.022 C 1245.32 556.94 1248.23 561.037 1249.67 565.356 C 1251.48 570.798 1248.57 577.664 1246.13 582.546 C 1235.48 603.821 1216.65 628.259 1203.35 648.655 C 1194.48 662.272 1186.7 678.189 1176.34 690.634 C 1173.24 694.364 1169.44 697.703 1164.68 699.073 C 1160.22 700.311 1155.44 699.644 1151.49 697.23 C 1147.42 694.739 1144.52 690.714 1143.46 686.063 C 1141.07 675.373 1156.79 655.607 1162.6 646.352 C 1174.74 627.004 1188.04 608.239 1199.94 588.683 L 1155.16 588.636 L 1089.29 690.889 C 1116.24 690.786 1115.68 700.49 1127.65 722.352 L 1152.46 767.546 L 1201.28 856.271 C 1209.87 871.925 1219.52 887.692 1226.94 903.923 C 1228.76 907.9 1229.91 912.288 1229.13 916.67 C 1228.4 920.753 1225.99 923.752 1222.55 925.962 C 1218.64 928.469 1213.99 929.649 1209.41 930.147 C 1198.7 931.312 1101.14 930.899 1095.63 929.341 C 1082.08 925.506 1075.05 906.946 1068.9 895.505 C 1055 869.491 1038.88 841.481 1024.84 815.663 C 995.941 762.526 992.883 774.405 1023.45 726.496 C 1006.63 726.336 989.796 726.727 972.976 726.374 C 960.599 726.114 949.412 721.529 950.495 706.981 C 952.103 685.386 957.531 664.245 960.475 642.839 C 969.209 579.336 981.817 515.833 989.864 452.262 L 952.512 452.322 C 941.331 520.488 930.531 588.717 920.114 657.004 L 882.472 894.961 C 900.391 895.028 921.172 892.634 938.729 895.413 C 943.816 896.218 947.687 899.073 950.494 903.372 C 952.963 907.153 953.799 912.131 952.797 916.532 C 951.772 921.032 948.595 925.001 944.631 927.293 C 936.073 932.242 866.837 931.586 855.905 928.48 C 851.909 927.345 848.125 923.764 846.296 920.088 C 844.442 916.364 844.166 912.137 844.651 908.062 C 846.428 893.112 849.536 878.059 851.918 863.178 L 865.704 776.068 L 902.645 543.048 C 906.571 519.432 909.755 495.322 913.768 471.607 C 916.111 457.758 917.279 441.803 921.271 428.318 C 923.006 422.46 927.617 419.544 932.826 417.117 z"/>
<path transform="translate(0,0)" fill="rgb(255,255,255)" d="M 1066.01 726.476 C 1073.58 726.183 1082 726.468 1089.63 726.563 C 1096.51 741.995 1111.13 766.466 1119.63 781.95 L 1181.96 894.893 L 1156.11 894.943 L 1109.01 894.943 C 1106.52 888.196 1091.06 861.23 1086.55 853.056 L 1039.3 767.56 C 1048.29 754.916 1057.26 739.676 1066.01 726.476 z"/>
<path transform="translate(0,0)" fill="rgb(40,33,32)" d="M 805.349 994.179 C 872.283 987.861 866.721 1065.81 807.775 1082.16 C 742.209 1092.31 741.894 1008.92 805.349 994.179 z"/>
<path transform="translate(0,0)" fill="rgb(255,255,255)" d="M 807.665 1009.13 C 848.378 1006.94 841.802 1057.15 804.266 1066.9 C 763.733 1068.8 769.699 1020.07 807.665 1009.13 z"/>
<path transform="translate(0,0)" fill="rgb(40,33,32)" d="M 1008.98 994.28 C 1020.51 993.331 1030.79 992.734 1041.39 998.415 C 1049.44 1002.67 1055.37 1010.06 1057.8 1018.83 C 1065.89 1047.89 1041.72 1074.25 1014.78 1081.64 C 954.218 1095.42 941.792 1014.51 1008.98 994.28 z"/>
<path transform="translate(0,0)" fill="rgb(255,255,255)" d="M 1013.9 1009.12 C 1027.16 1008.3 1031.83 1011.58 1039.6 1021.64 C 1044.49 1044.43 1031.4 1060.73 1009.95 1067.07 C 969.011 1068.32 975.213 1019.4 1013.9 1009.12 z"/>
<path transform="translate(0,0)" fill="rgb(40,33,32)" d="M 1480.16 993.378 C 1538.99 993.921 1531.2 1071.71 1469.04 1083.02 C 1403.13 1084.69 1415.3 999.047 1480.16 993.378 z"/>
<path transform="translate(0,0)" fill="rgb(255,255,255)" d="M 1473.49 1009.26 C 1512.58 1004.17 1510.28 1056.45 1471.51 1066.94 C 1467.63 1067.13 1462.3 1066.88 1458.29 1066.79 C 1428.58 1049.51 1446.92 1018.42 1473.49 1009.26 z"/>
<path transform="translate(0,0)" fill="rgb(40,33,32)" d="M 684.43 994.371 C 704.593 993.962 745.027 989.589 736.702 1024.37 C 733.752 1036.69 725.411 1043.85 714.792 1049.91 C 718.285 1059.62 729.075 1073.32 720.513 1082.1 C 710.846 1085.52 706.411 1077.4 703.42 1070.25 L 695.904 1052.53 C 691.977 1052.34 687.508 1052.38 683.532 1052.34 C 681.896 1060.32 680.318 1086.38 667.439 1082.76 C 664.9 1082.04 662.766 1080.69 661.462 1078.36 C 660.491 1070.42 673.934 1008.62 677.4 997.987 C 678.15 995.682 682.073 994.909 684.43 994.371 z"/>
<path transform="translate(0,0)" fill="rgb(255,255,255)" d="M 692.319 1009.2 C 700.405 1008.93 720.853 1007.67 719.709 1021.88 C 719.342 1026.45 714.382 1031.46 710.933 1034.42 C 702.066 1037.64 696.314 1037 687.05 1036.86 C 688.664 1027.65 690.165 1018.29 692.319 1009.2 z"/>
<path transform="translate(0,0)" fill="rgb(40,33,32)" d="M 1602.24 1050.98 C 1604.31 1038.64 1609.89 1005.3 1615.6 996.206 C 1620.17 992.612 1625.28 993.297 1629.41 997.021 C 1631.71 1004 1616.76 1065.94 1614.48 1077.53 C 1613.87 1080.61 1609.38 1082.28 1606.67 1083.29 C 1597.55 1081.16 1594.11 1072.77 1589.67 1065.21 C 1581.98 1052.14 1574.59 1039.09 1566.45 1026.27 C 1563.69 1038.47 1559.79 1067.17 1554.5 1079.28 C 1552.96 1082.79 1544.09 1083.8 1539.38 1079.32 C 1538.35 1075.04 1539.37 1068.93 1540.43 1064.3 C 1545.43 1042.66 1548.47 1019.42 1555.13 998.37 C 1555.69 996.617 1558.07 994.897 1559.54 993.91 C 1563.67 993.793 1567.43 993.795 1570.05 997.343 C 1581.94 1013.42 1592.3 1033.63 1602.24 1050.98 z"/>
<path transform="translate(0,0)" fill="rgb(40,33,32)" d="M 604.953 994.01 C 619.996 993.335 618.752 1003.17 621.596 1015.94 C 626.029 1035.86 632.657 1056.62 634.511 1076.75 C 635.012 1082.19 624.3 1082.91 620.089 1081.5 C 615.182 1076.59 614.655 1068.06 613.448 1061.03 L 581.967 1060.98 C 576.074 1062.95 568.677 1092.56 554.259 1080.25 C 553.866 1079.37 552.704 1076.55 553.223 1075.69 C 563.368 1058.76 591.453 1005.09 604.953 994.01 z"/>
<path transform="translate(0,0)" fill="rgb(255,255,255)" d="M 604.378 1021.65 C 606.774 1029.84 608.185 1037.49 609.836 1045.85 L 595.75 1045.83 C 594.011 1045.88 593.651 1045.68 591.92 1045.34 C 591.233 1040.52 601.365 1026.36 604.378 1021.65 z"/>
<path transform="translate(0,0)" fill="rgb(40,33,32)" d="M 397.201 1028.54 C 408.386 1019.27 418.693 1008.87 430.053 999.875 C 436.288 994.937 444.55 990.456 450.243 998.296 C 450.069 1006.68 423.797 1025.68 415.672 1033.69 C 422.881 1045.44 432.215 1058.78 439.962 1070.45 C 443.832 1077.4 437.283 1084.13 432.581 1083.19 C 421.308 1080.93 407.745 1055.24 401.567 1046.29 C 398.261 1048.72 395.754 1051.19 392.78 1053.99 C 389.615 1063.38 389.358 1091.21 371.607 1080.52 C 370.065 1077.75 369.762 1075.72 370.248 1072.5 C 373.739 1049.35 379.454 1026.31 383.876 1003.29 C 384.994 997.464 385.828 997.17 390.939 994.059 C 409.332 993.166 399.269 1015.98 397.201 1028.54 z"/>
<path transform="translate(0,0)" fill="rgb(40,33,32)" d="M 1185.8 994.043 C 1189.63 993.96 1191.77 993.444 1194.99 995.445 C 1204.27 1006.82 1178.67 1057.43 1191.92 1063.73 C 1231.37 1081.37 1224.74 1016.57 1235.3 996.799 C 1237.3 993.042 1246.6 992.864 1250.45 997.797 C 1251.25 1002.25 1249.23 1009.85 1248.23 1014.61 C 1245.25 1031.28 1241.81 1060.21 1229.24 1071.59 C 1220.13 1079.71 1208.16 1083.85 1195.98 1083.1 C 1153.13 1080.04 1176.18 1024.43 1181.08 999.324 C 1181.4 997.687 1184.42 995.131 1185.8 994.043 z"/>
<path transform="translate(0,0)" fill="rgb(40,33,32)" d="M 908.973 994.174 C 917.281 993.185 952.52 994.632 938.504 1014.9 C 933.696 1021.85 910.47 998.726 902.881 1014.05 C 900.888 1018.08 900.704 1016.64 901.552 1021.24 C 911.128 1032.51 934.917 1030.71 936.576 1045.93 C 939.048 1068.59 922.626 1079.26 904.418 1082.92 C 892.013 1083.34 865.481 1080.41 872.227 1061.89 C 881.523 1052.97 899.119 1072.4 907.836 1066.85 C 932.612 1051.07 905.919 1043.2 892.334 1038.91 C 888.014 1037.54 883.758 1031.54 883.25 1028.54 C 879.884 1008.68 891.19 998.72 908.973 994.174 z"/>
<path transform="translate(0,0)" fill="rgb(40,33,32)" d="M 1688.96 993.382 C 1699.69 993.797 1723.05 1000.75 1711.59 1014.72 C 1703.63 1017.75 1693.8 1009.33 1685.79 1008.77 C 1680.7 1008.41 1672.83 1015.1 1674.45 1019.33 C 1678.4 1029.63 1696.34 1029.13 1705.04 1038.21 C 1717.92 1051.64 1706.42 1067.41 1694.95 1076.58 C 1688.23 1081.78 1677.02 1083.05 1668.19 1083.11 C 1656.93 1082.46 1641.76 1075.42 1644.42 1062.08 C 1649.95 1055.56 1658.17 1058.48 1663.19 1063.72 C 1672.37 1073.32 1693.07 1065.23 1690.64 1052.09 C 1682.12 1039.74 1647.39 1041.07 1657.18 1013.23 C 1662.26 998.757 1675.21 994.951 1688.96 993.382 z"/>
<path transform="translate(0,0)" fill="rgb(40,33,32)" d="M 1280.03 994.372 C 1285.54 994.322 1339.57 992.925 1341.65 995.777 C 1353.52 1012.01 1324.35 1009.53 1316.59 1009.44 C 1314.21 1025.43 1309.08 1045.63 1305.97 1062.22 C 1304.6 1070.52 1302.38 1088.71 1288.89 1081.25 C 1282.34 1071.41 1296 1025.03 1298.61 1009.09 C 1290.29 1009.26 1282.71 1010.63 1275.52 1006.11 C 1272.14 1000.69 1275.66 998.092 1280.03 994.372 z"/>
<path transform="translate(0,0)" fill="rgb(40,33,32)" d="M 1098.7 994.023 C 1103.24 993.788 1105.54 993.519 1108.92 996.368 C 1112.86 1002.78 1099.73 1054.86 1097.55 1066.84 C 1108.16 1067 1132.73 1064.35 1140.12 1070.38 C 1142.46 1076.03 1139.29 1079.5 1134.37 1081.96 C 1124.56 1082.36 1083.98 1084.73 1078.73 1078.28 C 1077.87 1073.51 1079.04 1066.15 1080.2 1060.87 C 1084.71 1040.33 1088.27 1018.32 1094.34 998.258 C 1094.8 996.744 1097.41 994.895 1098.7 994.023 z"/>
<path transform="translate(0,0)" fill="rgb(40,33,32)" d="M 488.747 993.832 C 493.312 993.825 496.133 993.756 499.379 996.941 C 501.271 1001.45 488.993 1056.41 487.511 1066.88 C 498.243 1067.06 521.697 1064.28 529.219 1070.27 C 531.287 1076.09 527.983 1079.62 522.942 1082.11 C 512.783 1082.23 475.274 1084.3 468.835 1079.33 C 465.563 1068.55 479.891 1015.78 482.421 1002.32 C 483.189 998.23 485.298 996.037 488.747 993.832 z"/>
<path transform="translate(0,0)" fill="rgb(40,33,32)" d="M 1375.37 994.319 C 1383.72 994.078 1401.4 992.22 1407.28 997.281 C 1408.95 1001.09 1408.97 999.799 1408.62 1003.58 C 1405.8 1007.33 1401.47 1008.01 1396.79 1009.42 C 1394.1 1014.35 1384 1062.65 1385.83 1066.44 C 1389.47 1067.46 1391.26 1067.61 1393.97 1070.27 C 1396.08 1076.61 1393.34 1079.43 1387.86 1081.96 C 1378.84 1082.34 1369.49 1082.69 1360.46 1082.15 C 1353.89 1081.76 1351.33 1076.75 1353.95 1070.88 C 1356.68 1068.14 1360.52 1067.76 1364.47 1066.82 C 1367.75 1063.83 1376.3 1017.01 1376.67 1010.11 C 1374.36 1009.31 1372.35 1008.54 1370.08 1007.63 C 1365.39 1001.8 1368.66 996.186 1375.37 994.319 z"/>
</svg>